<svg width="10" height="10" viewBox="0 0 10 10" fill="none" xmlns="http://www.w3.org/2000/svg">
<path d="M5 9C5.88667 8.99995 6.74821 8.70542 7.44935 8.16268C8.15049 7.61993 8.65152 6.85969 8.87378 6.00133M5 9C4.11334 8.99995 3.2518 8.70542 2.55066 8.16268C1.84951 7.61993 1.34848 6.85969 1.12622 6.00133M5 9C6.10445 9 7 7.20889 7 5C7 2.79111 6.10445 1 5 1M5 9C3.89556 9 3 7.20889 3 5C3 2.79111 3.89556 1 5 1M5 1C5.70944 0.999704 6.40619 1.18816 7.01875 1.54603C7.63132 1.9039 8.13764 2.4183 8.48578 3.03644M5 1C4.29056 0.999704 3.59381 1.18816 2.98125 1.54603C2.36869 1.9039 1.86236 2.4183 1.51422 3.03644M8.48578 3.03644C7.51808 3.87464 6.28024 4.33518 5 4.33333C3.66756 4.33333 2.44889 3.84444 1.51422 3.03644M8.48578 3.03644C8.82394 3.63555 9.0011 4.31205 9 5C9 5.34578 8.956 5.68133 8.87378 6.00133M8.87378 6.00133C7.68852 6.65839 6.3552 7.00213 5 7C3.59467 7 2.27422 6.63778 1.12622 6.00133M1.12622 6.00133C1.04211 5.67421 0.999701 5.33776 1 5C1 4.28667 1.18667 3.61644 1.51422 3.03644" stroke="#3A97ED" stroke-width="0.5" stroke-linecap="round" stroke-linejoin="round"/>
</svg>
