<svg width="12" height="9" viewBox="0 0 12 9" fill="none" xmlns="http://www.w3.org/2000/svg">
<path d="M12 3.60455L6.82 6.53171C6.5654 6.67561 6.28466 6.75052 6 6.75052C5.71534 6.75052 5.4346 6.67561 5.18 6.53171L0 3.60455V7.49312C0 7.89277 0.140476 8.27606 0.390524 8.55866C0.640573 8.84126 0.979711 9.00002 1.33333 9.00002H10.6667C11.0203 9.00002 11.3594 8.84126 11.6095 8.55866C11.8595 8.27606 12 7.89277 12 7.49312V3.60455Z" fill="#334155"/>
<path d="M1.33333 0.152283C0.979711 0.152283 0.640573 0.332214 0.390524 0.652493C0.140476 0.972772 0 1.40716 0 1.86011V2.8515L5.62733 6.45586C5.74304 6.52996 5.87063 6.56854 6 6.56854C6.12937 6.56854 6.25696 6.52996 6.37267 6.45586L12 2.85235V1.86011C12 1.40716 11.8595 0.972772 11.6095 0.652493C11.3594 0.332214 11.0203 0.152283 10.6667 0.152283H1.33333Z" fill="#334155"/>
</svg>
