<svg width="11" height="10" viewBox="0 0 11 10" fill="none" xmlns="http://www.w3.org/2000/svg">
<path d="M3.02083 0.75V1.8125M7.97917 0.75V1.8125M1.25 8.1875V2.875C1.25 2.59321 1.36194 2.32296 1.5612 2.1237C1.76046 1.92444 2.03071 1.8125 2.3125 1.8125H8.6875C8.96929 1.8125 9.23954 1.92444 9.4388 2.1237C9.63806 2.32296 9.75 2.59321 9.75 2.875V8.1875M1.25 8.1875C1.25 8.46929 1.36194 8.73954 1.5612 8.9388C1.76046 9.13806 2.03071 9.25 2.3125 9.25H8.6875C8.96929 9.25 9.23954 9.13806 9.4388 8.9388C9.63806 8.73954 9.75 8.46929 9.75 8.1875M1.25 8.1875V4.64583C1.25 4.36404 1.36194 4.09379 1.5612 3.89453C1.76046 3.69527 2.03071 3.58333 2.3125 3.58333H8.6875C8.96929 3.58333 9.23954 3.69527 9.4388 3.89453C9.63806 4.09379 9.75 4.36404 9.75 4.64583V8.1875M5.5 5.35417H5.50378V5.35794H5.5V5.35417ZM5.5 6.41667H5.50378V6.42044H5.5V6.41667ZM5.5 7.47917H5.50378V7.48294H5.5V7.47917ZM4.4375 6.41667H4.44128V6.42044H4.4375V6.41667ZM4.4375 7.47917H4.44128V7.48294H4.4375V7.47917ZM3.375 6.41667H3.37878V6.42044H3.375V6.41667ZM3.375 7.47917H3.37878V7.48294H3.375V7.47917ZM6.5625 5.35417H6.56628V5.35794H6.5625V5.35417ZM6.5625 6.41667H6.56628V6.42044H6.5625V6.41667ZM6.5625 7.47917H6.56628V7.48294H6.5625V7.47917ZM7.625 5.35417H7.62878V5.35794H7.625V5.35417ZM7.625 6.41667H7.62878V6.42044H7.625V6.41667Z" stroke="#64748B" stroke-width="0.75" stroke-linecap="round" stroke-linejoin="round"/>
</svg>
