<svg width="7" height="7" viewBox="0 0 7 7" fill="none" xmlns="http://www.w3.org/2000/svg">
<path d="M3.80513 2.65077C3.97175 2.73032 4.11685 2.8487 4.22823 2.99596C4.33962 3.14322 4.41403 3.31506 4.44524 3.49704C4.47644 3.67902 4.46351 3.86584 4.40754 4.04179C4.35157 4.21774 4.25419 4.37769 4.12359 4.5082L2.96975 5.66205C2.75336 5.87843 2.45987 6 2.15385 6C1.84783 6 1.55434 5.87843 1.33795 5.66205C1.12157 5.44566 1 5.15217 1 4.84615C1 4.54013 1.12157 4.24664 1.33795 4.03026L1.78847 3.57974M5.21153 3.42026L5.66205 2.96975C5.87843 2.75336 6 2.45987 6 2.15385C6 1.84783 5.87843 1.55434 5.66205 1.33795C5.44566 1.12157 5.15217 1 4.84615 1C4.54013 1 4.24664 1.12157 4.03026 1.33795L2.87641 2.4918C2.74581 2.62231 2.64843 2.78226 2.59246 2.95821C2.53649 3.13416 2.52356 3.32098 2.55476 3.50296C2.58597 3.68494 2.66038 3.85678 2.77177 4.00404C2.88315 4.1513 3.02825 4.26968 3.19487 4.34923" stroke="#334155" stroke-width="0.5" stroke-linecap="round" stroke-linejoin="round"/>
</svg>
